<?xml version="1.0" encoding="UTF-8"?>
<svg width="320px" height="55px" viewBox="0 0 320 55" version="1.1" xmlns="http://www.w3.org/2000/svg" xmlns:xlink="http://www.w3.org/1999/xlink">
    <!-- Generator: Sketch 41.2 (35397) - http://www.bohemiancoding.com/sketch -->
    <title>logo-black</title>
    <desc>Created with Sketch.</desc>
    <defs></defs>
    <g id="Page-1" stroke="none" stroke-width="1" fill="none" fill-rule="evenodd">
        <g id="logo-black" fill="#111111">
            <g id="Group" transform="translate(4.069364, 5.919075)">
                <path d="M288.34104,35.8479389 L288.34104,42.1734104 L263.708815,42.1734104 L263.708815,30.7216207 C263.567569,31.2183048 263.40295,31.7081954 263.214957,32.1912934 C262.458932,34.1341017 261.342493,35.8790867 259.865607,37.4263006 C258.388721,38.9735145 256.705272,40.1602801 254.81521,40.9866329 C252.925147,41.8129858 250.916436,42.2261561 248.789017,42.2261561 L248.736272,42.2261561 C246.608853,42.2261561 244.608933,41.8129858 242.736452,40.9866329 C240.863972,40.1602801 239.171732,38.9735145 237.659682,37.4263006 C236.253124,35.9142506 235.167453,34.21322 234.402637,32.3231575 C233.949906,31.2043387 233.621932,30.0501059 233.418714,28.8604468 L233.418714,42.1734104 L224.240968,42.1734104 L212.90065,19.7037572 L212.90065,42.1734104 L204.056539,42.1734104 L179.652457,42.1734104 L179.652457,28.2988015 C179.466608,29.6435015 179.12593,30.9409931 178.630419,32.1912934 C177.874394,34.0989378 176.775537,35.8087593 175.333815,37.3208092 C173.856929,38.9031871 172.17348,40.1075344 170.283418,40.9338873 C168.393355,41.7602402 166.384645,42.1734104 164.257225,42.1734104 L164.20448,42.1734104 C162.112225,42.1734104 160.121096,41.7602402 158.231033,40.9338873 C156.340971,40.1075344 154.63994,38.9031871 153.12789,37.3208092 C151.721332,35.8087593 150.631266,34.0989378 149.857659,32.1912934 C149.341383,30.9182039 148.989551,29.5961871 148.802159,28.2252251 C148.573119,29.8970026 148.118596,31.4695589 147.438584,32.9429191 L152.423049,42.1734104 L142.691474,42.1734104 L141.451951,39.9053468 C138.972892,41.4525607 136.291681,42.2261561 133.408237,42.2261561 L133.355491,42.2261561 C131.228072,42.2261561 129.219362,41.8129858 127.329299,40.9866329 C125.439237,40.1602801 123.755788,38.9735145 122.278902,37.4263006 C121.776798,36.8997036 121.315213,36.3491189 120.894147,35.7745443 L120.894147,42.1734104 L96.261922,42.1734104 L96.261922,33.9775778 C95.8732144,35.0313589 95.3572016,36.0182934 94.7138728,36.9384032 C93.9578479,38.0196947 93.0567851,38.94713 92.0106575,39.720737 C90.9645299,40.4943439 89.8129278,41.0965176 88.5558165,41.527276 C87.2987052,41.9580344 85.9668905,42.1734104 84.5603324,42.1734104 C82.8372987,42.1734104 81.228572,41.8481487 79.734104,41.1976156 C78.2396361,40.5470825 76.9254031,39.6548106 75.7913656,38.5207731 C74.6573281,37.3867357 73.7650562,36.0637118 73.1145231,34.5516618 C72.46399,33.0396119 72.1387283,31.4220944 72.1387283,29.6990607 L81.2109827,29.6990607 C81.2109827,30.6309054 81.5362443,31.4308733 82.1867775,32.0989884 C82.8373106,32.7671035 83.6284876,33.1011561 84.5603324,33.1011561 C85.3163573,33.1011561 85.9844624,32.8769892 86.5646676,32.4286488 C87.1448728,31.9803085 87.5404614,31.4132982 87.7514451,30.7276012 C87.8569369,30.4462895 87.9096821,30.1210279 87.9096821,29.7518064 C87.9096821,28.8199616 87.5844204,28.063948 86.9338873,27.4837428 C86.2833542,26.9035376 85.4921771,26.6134393 84.5603324,26.6134393 C82.8372987,26.6134393 81.228572,26.2969685 79.734104,25.6640173 C78.2396361,25.0310662 76.9254031,24.1695623 75.7913656,23.0794798 C74.6573281,21.9893972 73.7650562,20.7059322 73.1145231,19.2290462 C72.46399,17.7521602 72.1387283,16.1434336 72.1387283,14.4028179 C72.1387283,13.7874488 72.1826826,13.1764842 72.2705925,12.5699061 C72.3585024,11.9633279 72.4903652,11.3523634 72.666185,10.7369942 C73.0705704,9.47109194 73.6507669,8.30190806 74.4067919,7.22940751 C75.1628169,6.15690697 76.0638796,5.22947164 77.1100072,4.4470737 C78.1561348,3.66467576 79.307737,3.05810668 80.5648483,2.62734827 C81.8219596,2.19658985 83.1537743,1.98121387 84.5603324,1.98121387 C86.283366,1.98121387 87.8920927,2.30647555 89.3865607,2.95700867 C90.8810287,3.60754179 92.1952617,4.49981369 93.3292991,5.63385116 C94.4633366,6.76788862 95.3556085,8.09091248 96.0061416,9.60296243 C96.0978687,9.81616596 96.1831288,10.0311168 96.261922,10.2478152 L96.261922,1.98121387 L120.894147,1.98121387 L120.894147,8.44441885 C121.316683,7.87403102 121.778267,7.328373 122.278902,6.8074422 C123.755788,5.26022829 125.439237,4.06906728 127.329299,3.23392341 C129.219362,2.39877954 131.228072,1.98121387 133.355491,1.98121387 L133.408237,1.98121387 C135.500492,1.98121387 137.491621,2.39438411 139.381684,3.22073699 C141.271746,4.04708987 142.972777,5.24264632 144.484827,6.8074422 C145.750729,8.17883634 146.766073,9.70844532 147.530889,11.396315 C148.017984,12.4712844 148.38919,13.589032 148.644509,14.7495718 L148.644509,1.92846821 L157.716763,1.92846821 L157.716763,25.9804913 C157.716763,26.9475 157.888185,27.8617491 158.231033,28.7232659 C158.573882,29.5847827 159.044193,30.3407964 159.64198,30.9913295 C160.239767,31.6418626 160.934245,32.1561277 161.725434,32.5341402 C162.516622,32.9121527 163.360545,33.1011561 164.257225,33.1011561 C165.153906,33.1011561 165.989038,32.9121527 166.762645,32.5341402 C167.536251,32.1561277 168.221938,31.6418626 168.819725,30.9913295 C169.417513,30.3407964 169.887823,29.5847827 170.230672,28.7232659 C170.573521,27.8617491 170.744942,26.9475 170.744942,25.9804913 L170.744942,1.92846821 L179.817197,1.92846821 L179.817197,1.98121387 L204.056539,1.98121387 L213.058887,1.98121387 L224.34646,24.3981214 L224.34646,1.98121387 L233.418714,1.98121387 L233.418714,15.3547053 C233.617232,14.1732987 233.936415,13.0340535 234.376264,11.9369581 C235.14108,10.0293137 236.235542,8.31949215 237.659682,6.8074422 C239.171732,5.26022829 240.863972,4.06906728 242.736452,3.23392341 C244.608933,2.39877954 246.608853,1.98121387 248.736272,1.98121387 L248.789017,1.98121387 C250.916436,1.98121387 252.925147,2.39438411 254.81521,3.22073699 C256.705272,4.04708987 258.388721,5.24264632 259.865607,6.8074422 C261.342493,8.3546561 262.458932,10.0996411 263.214957,12.0424494 C263.40295,12.5255474 263.567569,13.0154379 263.708815,13.5121221 L263.708815,1.98121387 L288.34104,1.98121387 L288.34104,8.24909772 C288.540725,7.90000777 288.757127,7.56011138 288.990246,7.22940751 C289.746271,6.15690697 290.647333,5.22947164 291.693461,4.4470737 C292.739589,3.66467576 293.891191,3.05810668 295.148302,2.62734827 C296.405413,2.19658985 297.737228,1.98121387 299.143786,1.98121387 C300.86682,1.98121387 302.475546,2.30647555 303.970014,2.95700867 C305.464482,3.60754179 306.778715,4.49981369 307.912753,5.63385116 C309.04679,6.76788862 309.939062,8.09091248 310.589595,9.60296243 C311.240128,11.1150124 311.56539,12.7149482 311.56539,14.4028179 L302.493136,14.4028179 C302.493136,13.4709732 302.167874,12.6797961 301.517341,12.029263 C300.866808,11.3787299 300.075631,11.0534682 299.143786,11.0534682 C298.387761,11.0534682 297.719656,11.2820305 297.139451,11.7391618 C296.559246,12.1962932 296.163657,12.758908 295.952673,13.4270231 C295.847182,13.6731708 295.794436,13.9984325 295.794436,14.4028179 C295.794436,15.3346627 296.119698,16.0906763 296.770231,16.6708815 C297.420764,17.2510867 298.211941,17.541185 299.143786,17.541185 C300.86682,17.541185 302.475546,17.8576558 303.970014,18.4906069 C305.464482,19.1235581 306.778715,19.9894574 307.912753,21.0883309 C309.04679,22.1872044 309.939062,23.4750649 310.589595,24.9519509 C311.240128,26.4288369 311.56539,28.011191 311.56539,29.6990607 C311.56539,30.3495938 311.521436,30.97814 311.433526,31.5847182 C311.345616,32.1912964 311.213753,32.8022609 311.037934,33.4176301 C310.633548,34.6835323 310.053352,35.8571116 309.297327,36.9384032 C308.541302,38.0196947 307.640239,38.94713 306.594111,39.720737 C305.547984,40.4943439 304.396382,41.0965176 303.13927,41.527276 C301.882159,41.9580344 300.550344,42.1734104 299.143786,42.1734104 C297.420752,42.1734104 295.812026,41.8481487 294.317558,41.1976156 C292.82309,40.5470825 291.508857,39.6548106 290.374819,38.5207731 C289.577337,37.7232912 288.899414,36.832351 288.34104,35.8479389 Z M287.182813,33.1011561 L272.781069,33.1011561 L272.781069,26.6134393 L284.226879,26.6134393 L284.226879,17.541185 L272.781069,17.541185 L272.781069,11.0534682 L287.162991,11.0534682 C287.029848,11.5619643 286.926867,12.0674401 286.854046,12.5699061 C286.766136,13.1764842 286.722182,13.7874488 286.722182,14.4028179 C286.722182,16.1434336 287.047444,17.7521602 287.697977,19.2290462 C288.34851,20.7059322 289.240782,21.9893972 290.374819,23.0794798 C291.508857,24.1695623 292.82309,25.0310662 294.317558,25.6640173 C295.812026,26.2969685 297.420752,26.6134393 299.143786,26.6134393 C300.075631,26.6134393 300.866808,26.9035376 301.517341,27.4837428 C302.167874,28.063948 302.493136,28.8199616 302.493136,29.7518064 C302.493136,30.1210279 302.440391,30.4462895 302.334899,30.7276012 C302.123915,31.4132982 301.728327,31.9803085 301.148121,32.4286488 C300.567916,32.8769892 299.899811,33.1011561 299.143786,33.1011561 C298.211941,33.1011561 297.420764,32.7671035 296.770231,32.0989884 C296.119698,31.4308733 295.794436,30.6309054 295.794436,29.6990607 L286.722182,29.6990607 C286.722182,30.882897 286.875725,32.0169236 287.182813,33.1011561 Z M263.708815,18.2005058 L255.276734,18.2005058 C255.276734,17.2334971 255.105312,16.3148526 254.762464,15.4445448 C254.419615,14.574237 253.9537,13.8138279 253.364704,13.1632948 C252.775708,12.5127617 252.094416,11.9984966 251.320809,11.6204841 C250.547202,11.2424716 249.70328,11.0534682 248.789017,11.0534682 C247.892337,11.0534682 247.048414,11.2424716 246.257225,11.6204841 C245.466037,11.9984966 244.771559,12.5127617 244.173772,13.1632948 C243.575984,13.8138279 243.110069,14.5698415 242.776012,15.4313584 C242.441954,16.2928752 242.274928,17.2159151 242.274928,18.2005058 L242.274928,26.033237 C242.274928,27.0002457 242.441954,27.9144947 242.776012,28.7760116 C243.110069,29.6375284 243.575984,30.393542 244.173772,31.0440751 C244.771559,31.6946083 245.466037,32.2088734 246.257225,32.5868858 C247.048414,32.9648983 247.892337,33.1539017 248.789017,33.1539017 C249.685698,33.1539017 250.525225,32.9648983 251.307623,32.5868858 C252.090021,32.2088734 252.775708,31.6946083 253.364704,31.0440751 C253.9537,30.393542 254.419615,29.6375284 254.762464,28.7760116 C255.105312,27.9144947 255.276734,27.0002457 255.276734,26.033237 L263.708815,26.033237 L263.708815,18.2005058 Z M203.828396,11.0534682 L188.724711,11.0534682 L188.724711,17.541185 L200.17052,17.541185 L200.17052,26.6134393 L188.724711,26.6134393 L188.724711,33.1011561 L203.828396,33.1011561 L203.828396,11.0534682 Z M119.307416,33.1011561 L105.334176,33.1011561 L105.334176,26.6134393 L116.779986,26.6134393 L116.779986,17.541185 L105.334176,17.541185 L105.334176,11.0534682 L119.315996,11.0534682 C119.265257,11.1582988 119.215561,11.2637901 119.166908,11.3699422 C118.393301,13.0578119 117.936176,14.8599374 117.79552,16.7763728 L117.79552,26.191474 C117.79552,28.3540571 118.182318,30.3891403 118.955925,32.2967847 C119.06629,32.5689347 119.183453,32.8370584 119.307416,33.1011561 Z M96.261922,14.4028179 L87.9096821,14.4028179 C87.9096821,13.4709732 87.5844204,12.6797961 86.9338873,12.029263 C86.2833542,11.3787299 85.4921771,11.0534682 84.5603324,11.0534682 C83.8043074,11.0534682 83.1362023,11.2820305 82.5559971,11.7391618 C81.9757919,12.1962932 81.5802034,12.758908 81.3692197,13.4270231 C81.2637278,13.6731708 81.2109827,13.9984325 81.2109827,14.4028179 C81.2109827,15.3346627 81.5362443,16.0906763 82.1867775,16.6708815 C82.8373106,17.2510867 83.6284876,17.541185 84.5603324,17.541185 C86.283366,17.541185 87.8920927,17.8576558 89.3865607,18.4906069 C90.8810287,19.1235581 92.1952617,19.9894574 93.3292991,21.0883309 C94.4633366,22.1872044 95.3556085,23.4750649 96.0061416,24.9519509 C96.0978687,25.1601962 96.1831288,25.3705384 96.261922,25.5829776 L96.261922,14.4028179 Z" id="sequences"></path>
                <g id="PRE">
                    <rect id="Rectangle" x="24.0462428" y="0.369942197" width="2.21965318" height="43.283237"></rect>
                    <rect id="Rectangle-Copy" x="46.982659" y="0.369942197" width="2.58959538" height="43.283237"></rect>
                    <rect id="Rectangle-Copy-4" x="0" y="0" width="2.58959538" height="43.6531792"></rect>
                    <rect id="Rectangle-Copy-5" x="70.6589595" y="0" width="2.58959538" height="43.6531792"></rect>
                    <rect id="Rectangle-Copy-2" x="2.21965318" y="41.0635838" width="69.1791908" height="2.58959538"></rect>
                    <rect id="Rectangle-Copy-3" x="2.21965318" y="0" width="69.1791908" height="2.58959538"></rect>
                    <path d="M2.21965318,43.6531792 L2.21965318,0.369942197 L25.7521832,0.369942197 L25.7521832,43.6531792 L2.21965318,43.6531792 Z M4.24395683,37.7829847 L11.4808424,37.7829847 L11.4808424,25.6394921 L14.0365258,25.6394921 C15.4198069,25.6394921 16.7145048,25.383356 17.9206584,24.8710761 C19.126812,24.3587961 20.1895608,23.6533721 21.1089367,22.7547827 C22.0283125,21.8561934 22.7452462,20.8064552 23.2597593,19.6055368 C23.7742724,18.4046183 24.0315251,17.1155398 24.0315251,15.7382627 C24.0315251,14.3609855 23.7742724,13.0719071 23.2597593,11.8709886 C22.7452462,10.6700701 22.0283125,9.61193403 21.1089367,8.69654861 C20.1895608,7.7811632 19.126812,7.06734125 17.9206584,6.55506134 C16.7145048,6.04278143 15.4198069,5.78664531 14.0365258,5.78664531 L4.24395683,5.78664531 L4.24395683,37.7829847 Z M24.3344773,43.6531792 L24.3344773,0.369942197 L48.6514249,0.369942197 L48.6514249,43.6531792 L24.3344773,43.6531792 Z M26.5612113,37.7829847 L33.8234007,37.7829847 L33.8234007,25.6394921 L33.8740083,25.6394921 L39.4661471,37.7829847 L46.9813744,37.7829847 L40.8831597,24.5561515 C42.5363492,23.7667365 43.8647852,22.5910298 44.8685075,21.0289959 C45.8722297,19.4669621 46.3740833,17.703402 46.3740833,15.7382627 C46.3740833,14.3609855 46.1041789,13.0719071 45.5643619,11.8709886 C45.0245449,10.6700701 44.3076112,9.61193403 43.4135392,8.69654861 C42.5194673,7.7811632 41.465153,7.06734125 40.2505648,6.55506134 C39.0359765,6.04278143 37.7454958,5.78664531 36.379084,5.78664531 L26.5612113,5.78664531 L26.5612113,37.7829847 Z M47.6638836,43.6531792 L47.6638836,0.369942197 L71.3988439,0.369942197 L71.3988439,43.6531792 L47.6638836,43.6531792 Z M49.5616682,37.7829847 L69.2733251,37.7829847 L69.2733251,30.5523158 L56.8238576,30.5523158 L56.8238576,25.3875524 L66.0091354,25.3875524 L66.0091354,18.1568836 L56.8238576,18.1568836 L56.8238576,12.9921202 L69.2733251,12.9921202 L69.2733251,5.78664531 L49.5616682,5.78664531 L49.5616682,37.7829847 Z" id="pre"></path>
                </g>
            </g>
        </g>
    </g>
</svg>